{"glyphs":{":":{"x_min":0,"x_max":550,"ha":550,"o":"m 244 165 q 262 165 278 158 q 293 151 304 140 q 315 128 321 113 q 328 98 328 81 q 328 61 320 44 q 313 27 301 15 q 289 2 272 -4 q 255 -11 237 -11 q 218 -11 203 -4 q 188 2 176 14 q 165 25 158 41 q 152 56 152 73 q 152 93 159 110 q 167 126 180 139 q 192 151 209 158 q 226 165 244 165 z m 312 501 q 330 501 346 494 q 361 487 372 476 q 383 464 390 449 q 396 434 396 417 q 396 397 389 380 q 381 363 369 351 q 356 339 340 332 q 323 325 305 325 q 287 325 271 332 q 255 339 244 350 q 233 362 227 377 q 220 392 220 409 q 220 429 228 446 q 235 462 248 475 q 260 487 277 494 q 293 501 312 501 z"},"$":{"x_min":0,"x_max":550,"ha":550,"o":"m 248 103 q 302 109 332 132 q 361 154 361 194 q 361 202 358 211 q 356 219 349 228 q 343 236 331 244 q 319 251 301 258 z m 342 370 q 381 354 410 337 q 438 321 457 302 q 476 283 484 260 q 493 238 493 208 q 493 159 471 121 q 448 83 410 56 q 372 30 321 16 q 270 2 213 1 l 170 -121 l 84 -121 l 127 2 q 93 5 61 10 q 29 16 -2 26 l 21 133 q 53 122 89 115 q 125 108 162 104 l 225 288 q 189 303 163 320 q 137 336 120 356 q 104 375 95 399 q 87 423 87 453 q 87 490 104 522 q 121 555 154 580 q 187 605 236 620 q 284 636 348 637 l 383 737 l 469 737 l 434 633 q 459 630 483 626 q 508 623 529 617 l 508 519 q 483 526 455 530 q 427 533 399 536 z m 313 537 q 266 532 240 513 q 215 494 215 462 q 215 444 226 428 q 238 412 267 400 z"},"?":{"x_min":0,"x_max":550,"ha":550,"o":"m 517 500 q 517 461 504 425 q 491 388 464 359 q 437 330 396 311 q 356 292 302 290 l 278 198 l 176 198 l 204 382 l 270 382 q 304 382 326 391 q 349 401 362 416 q 375 431 381 450 q 386 468 386 487 q 386 503 379 519 q 372 536 355 549 q 338 562 309 571 q 281 579 238 579 l 202 579 l 225 690 l 250 690 q 328 690 379 672 q 431 655 461 627 q 492 600 504 566 q 517 533 517 500 z m 282 71 q 282 53 275 38 q 268 23 256 12 q 244 1 228 -5 q 212 -11 196 -11 q 179 -11 166 -5 q 152 0 143 11 q 133 21 127 34 q 122 48 122 63 q 122 81 129 96 q 136 111 148 122 q 160 133 175 139 q 190 145 207 145 q 224 145 237 139 q 251 133 261 123 q 271 113 277 99 q 282 86 282 71 z"},"<":{"x_min":0,"x_max":550,"ha":550,"o":"m 332 -11 l 53 271 l 431 543 l 498 460 l 216 262 l 418 60 z"},"'":{"x_min":0,"x_max":550,"ha":550,"o":"m 365 447 l 263 447 l 296 690 l 430 690 z"},"=":{"x_min":0,"x_max":550,"ha":550,"o":"m 78 315 l 97 410 l 517 410 l 498 315 z m 40 123 l 59 218 l 479 218 l 459 123 z"},"a":{"x_min":0,"x_max":550,"ha":550,"o":"m 177 -11 q 104 -11 67 34 q 30 79 30 161 q 30 236 50 299 q 70 362 108 408 q 146 454 201 479 q 257 505 327 505 q 365 505 394 500 q 424 495 446 488 l 531 506 l 476 231 q 473 215 470 198 q 467 180 464 154 q 461 127 457 90 q 453 53 448 0 l 351 0 l 355 90 q 344 73 327 55 q 310 37 287 22 q 264 8 237 -2 q 209 -11 177 -11 z m 391 401 q 375 406 359 409 q 343 412 324 412 q 290 412 263 400 q 237 387 218 367 q 199 347 187 321 q 174 295 167 268 q 160 241 157 215 q 154 189 154 169 q 154 130 167 109 q 181 89 208 89 q 230 89 256 107 q 281 125 304 153 q 327 182 344 216 q 362 251 368 284 z"},"L":{"x_min":0,"x_max":550,"ha":550,"o":"m 46 0 l 174 638 l 296 638 l 189 103 l 458 103 l 438 0 z"},"3":{"x_min":0,"x_max":550,"ha":550,"o":"m 488 218 q 488 197 483 173 q 478 148 465 123 q 452 97 429 73 q 406 50 369 31 q 333 13 281 1 q 230 -10 160 -10 q 144 -10 124 -9 q 105 -8 86 -7 q 66 -6 49 -4 q 31 -2 18 0 l 38 103 q 67 97 104 94 q 141 90 182 90 q 228 90 262 99 q 295 108 317 124 q 339 140 350 162 q 361 185 361 211 q 361 225 355 238 q 349 251 333 262 q 318 272 292 278 q 266 284 225 284 l 151 284 l 170 375 l 223 375 q 261 375 291 383 q 321 391 343 406 q 364 420 375 442 q 386 464 386 491 q 386 503 383 513 q 379 523 369 531 q 359 540 342 544 q 325 549 299 549 q 261 549 226 542 q 190 536 149 524 l 149 622 q 195 636 237 643 q 278 649 322 649 q 368 649 404 639 q 440 628 464 610 q 488 592 501 567 q 513 542 513 511 q 513 482 505 456 q 497 429 480 406 q 463 382 438 364 q 414 346 380 335 q 431 327 459 295 q 488 264 488 218 z"},";":{"x_min":0,"x_max":550,"ha":550,"o":"m 312 501 q 330 501 346 494 q 361 487 372 476 q 383 464 390 449 q 396 434 396 417 q 396 397 389 380 q 381 363 369 351 q 356 339 340 332 q 323 325 305 325 q 287 325 271 332 q 255 339 244 350 q 233 362 227 377 q 220 392 220 409 q 220 429 228 446 q 235 462 248 475 q 260 487 277 494 q 293 501 312 501 z m 33 -94 q 70 -95 101 -87 q 131 -80 152 -67 q 173 -54 184 -37 q 196 -21 196 -4 q 196 9 190 19 q 185 29 179 39 q 173 49 167 62 q 162 74 162 92 q 162 111 168 127 q 175 144 186 156 q 198 168 214 175 q 230 182 250 182 q 272 182 288 175 q 304 167 315 153 q 326 140 332 121 q 337 102 337 80 q 337 22 313 -24 q 289 -70 247 -103 q 206 -136 151 -154 q 95 -172 33 -172 z"},"J":{"x_min":0,"x_max":550,"ha":550,"o":"m 428 181 q 420 141 399 106 q 379 71 348 45 q 317 20 276 5 q 235 -10 183 -10 q 159 -10 135 -5 q 112 -1 91 7 q 70 15 52 27 q 34 39 20 53 l 87 138 q 96 129 106 120 q 117 112 130 105 q 143 99 158 95 q 173 91 192 91 q 208 91 226 97 q 245 103 262 117 q 279 131 292 154 q 305 177 312 212 l 378 539 l 147 539 l 167 638 l 519 638 z"},"V":{"x_min":0,"x_max":550,"ha":550,"o":"m 304 0 l 145 0 l 78 638 l 207 638 l 240 254 l 250 128 l 313 261 l 493 638 l 628 638 z"},"\"":{"x_min":0,"x_max":550,"ha":550,"o":"m 262 447 l 166 447 l 199 690 l 327 690 z m 462 447 l 366 447 l 399 690 l 527 690 z"},"7":{"x_min":0,"x_max":550,"ha":550,"o":"m 194 0 l 52 0 l 410 523 l 106 523 l 130 638 l 573 638 l 550 523 z"},"S":{"x_min":0,"x_max":550,"ha":550,"o":"m 191 -11 q 137 -11 90 -4 q 44 2 1 16 l 24 129 q 44 122 67 115 q 90 109 114 104 q 137 100 161 98 q 184 95 206 95 q 245 95 272 102 q 300 109 318 122 q 335 134 344 150 q 352 166 352 183 q 352 204 341 219 q 330 233 312 246 q 293 258 270 269 q 247 279 223 291 q 199 302 176 316 q 153 329 135 347 q 116 366 105 390 q 94 414 94 447 q 94 486 111 522 q 127 559 161 587 q 195 615 247 632 q 300 649 372 649 q 393 649 414 647 q 436 646 456 643 q 476 640 494 636 q 512 633 527 629 l 506 523 q 492 528 474 532 q 456 536 437 539 q 417 542 398 544 q 378 546 361 546 q 326 546 301 540 q 276 534 260 523 q 244 513 237 498 q 229 484 229 468 q 229 449 240 435 q 251 421 270 410 q 288 398 311 387 q 334 376 359 365 q 383 353 406 338 q 430 324 448 305 q 466 287 478 262 q 489 237 489 205 q 489 156 468 116 q 447 76 408 47 q 369 19 314 4 q 259 -11 191 -11 z"},"}":{"x_min":0,"x_max":550,"ha":550,"o":"m 239 712 q 340 712 380 661 q 420 610 399 504 l 382 422 q 372 372 390 349 q 408 326 460 326 l 491 326 l 472 234 l 441 234 q 415 234 395 228 q 375 221 361 208 q 347 196 338 177 q 329 157 324 132 l 298 4 q 288 -46 269 -83 q 250 -121 221 -145 q 192 -170 152 -182 q 111 -194 58 -194 l 17 -194 l 35 -102 l 66 -102 q 89 -102 109 -96 q 129 -89 146 -76 q 162 -62 174 -40 q 186 -19 192 12 l 217 139 q 224 176 236 201 q 247 227 263 244 q 279 261 301 270 q 322 279 349 283 q 297 289 279 325 q 262 361 276 433 l 293 515 q 299 546 296 567 q 293 587 282 599 q 271 611 252 615 q 234 620 211 620 l 180 620 l 198 712 z"},"Z":{"x_min":0,"x_max":550,"ha":550,"o":"m 1 0 l 19 92 l 393 529 l 116 529 l 138 638 l 573 638 l 553 542 l 179 109 l 471 109 l 449 0 z"},"x":{"x_min":0,"x_max":550,"ha":550,"o":"m 342 0 l 262 167 l 115 0 l -34 0 l 202 250 l 75 496 l 215 496 l 294 333 l 436 496 l 575 496 l 355 251 l 485 0 z"},")":{"x_min":0,"x_max":550,"ha":550,"o":"m 273 728 q 349 649 391 558 q 432 466 432 364 q 432 300 415 228 q 397 156 357 82 q 317 8 252 -65 q 187 -138 92 -205 l 33 -132 q 117 -68 171 -2 q 226 64 257 127 q 289 190 302 249 q 314 308 314 357 q 314 399 305 440 q 296 482 280 521 q 264 560 241 595 q 219 631 192 661 z"},"&":{"x_min":0,"x_max":550,"ha":550,"o":"m 526 333 q 513 271 490 218 q 468 166 437 123 l 514 0 l 380 0 l 354 41 q 317 15 275 2 q 233 -11 186 -11 q 136 -11 100 1 q 63 13 40 34 q 17 56 6 84 q -5 113 -5 146 q -5 186 8 218 q 21 250 43 277 q 65 303 94 324 q 123 345 155 364 l 150 373 q 133 401 124 430 q 115 459 115 485 q 115 529 131 566 q 147 603 175 629 q 203 656 242 671 q 280 686 325 686 q 368 686 398 674 q 428 663 447 644 q 467 625 476 601 q 485 578 485 553 q 485 513 469 482 q 453 451 427 427 q 401 402 368 382 q 335 362 301 344 l 379 217 q 391 242 401 271 q 410 299 416 333 z m 116 157 q 116 125 136 105 q 155 85 197 85 q 256 85 305 122 l 202 288 q 183 275 167 261 q 152 248 140 231 q 129 215 123 197 q 116 179 116 157 z m 370 541 q 370 567 356 581 q 342 594 315 594 q 298 594 282 588 q 267 581 255 569 q 243 556 235 539 q 228 521 228 499 q 228 485 233 465 q 238 445 255 418 q 279 431 300 445 q 321 458 336 473 q 352 487 361 504 q 370 521 370 541 z"},"_":{"x_min":0,"x_max":550,"ha":550,"o":"m -90 -200 l -71 -106 l 478 -106 l 459 -200 z"},"v":{"x_min":0,"x_max":550,"ha":550,"o":"m 539 496 q 531 424 509 354 q 487 285 453 220 q 419 156 375 100 q 330 44 276 0 l 158 0 l 60 496 l 184 496 l 253 119 q 287 152 314 193 q 342 234 362 282 q 382 331 395 384 q 408 438 412 496 z"},"O":{"x_min":0,"x_max":550,"ha":550,"o":"m 227 -11 q 127 -11 73 44 q 20 99 20 204 q 20 253 28 305 q 37 356 54 406 q 71 456 97 500 q 124 544 160 577 q 197 610 244 629 q 291 649 349 649 q 449 649 503 594 q 556 539 556 434 q 556 385 548 333 q 540 281 522 232 q 505 182 479 138 q 453 94 416 61 q 379 28 332 8 q 285 -11 227 -11 z m 244 97 q 275 97 301 110 q 326 124 347 147 q 368 171 383 202 q 399 234 409 270 q 420 307 425 346 q 430 385 430 424 q 430 484 407 513 q 384 541 332 541 q 301 541 276 528 q 250 514 229 491 q 208 467 193 436 q 177 404 167 368 q 156 332 151 292 q 146 252 146 214 q 146 153 169 125 q 192 97 244 97 z"},"(":{"x_min":0,"x_max":550,"ha":550,"o":"m 283 -205 q 207 -126 166 -35 q 124 57 124 159 q 124 223 141 295 q 159 367 199 441 q 239 515 304 588 q 369 661 464 728 l 523 655 q 439 591 385 525 q 330 459 299 396 q 267 333 255 274 q 242 215 242 166 q 242 124 251 83 q 260 42 276 2 q 292 -37 314 -72 q 337 -108 364 -138 z"},"C":{"x_min":0,"x_max":550,"ha":550,"o":"m 456 26 q 410 9 368 0 q 326 -9 283 -9 q 214 -9 168 11 q 123 30 95 63 q 67 95 56 137 q 44 178 44 222 q 44 239 46 267 q 49 294 56 327 q 63 360 75 397 q 87 434 106 469 q 125 504 152 537 q 179 569 216 594 q 252 618 299 633 q 346 647 406 647 q 450 647 490 641 q 530 635 565 624 l 542 513 q 512 524 476 533 q 440 541 402 541 q 355 541 320 523 q 285 506 260 478 q 235 451 218 416 q 202 381 192 347 q 183 313 179 282 q 175 252 175 233 q 175 211 178 188 q 182 165 196 145 q 209 125 236 112 q 262 99 307 99 q 323 99 342 102 q 361 104 380 109 q 399 114 419 120 q 438 126 456 134 z"},"W":{"x_min":0,"x_max":550,"ha":550,"o":"m 448 0 l 313 0 l 292 197 l 285 277 l 244 195 l 140 0 l 2 0 l 94 638 l 200 638 l 132 229 l 114 117 l 163 217 l 279 444 l 355 444 l 380 203 l 387 118 l 409 218 l 510 638 l 612 638 z"},"A":{"x_min":0,"x_max":550,"ha":550,"o":"m 371 0 l 361 126 l 138 126 l 77 0 l -48 0 l 269 638 l 437 638 l 498 0 z m 330 521 l 186 224 l 353 224 z"},"f":{"x_min":0,"x_max":550,"ha":550,"o":"m -38 -108 q -14 -111 12 -111 q 33 -111 52 -105 q 71 -100 87 -88 q 103 -76 114 -57 q 125 -38 131 -11 l 199 332 l 55 332 l 74 425 l 218 425 l 232 496 q 253 600 314 650 q 375 699 482 699 q 513 699 544 695 q 576 691 600 685 l 581 592 q 556 598 529 602 q 501 605 473 605 q 419 605 391 576 q 363 548 352 496 l 338 425 l 533 425 l 514 332 l 319 332 l 252 -6 q 241 -62 219 -100 q 197 -138 165 -161 q 133 -185 93 -195 q 52 -205 5 -205 q -16 -205 -31 -204 q -45 -204 -58 -202 z m 0 496 z"},"Q":{"x_min":0,"x_max":550,"ha":550,"o":"m 330 -185 q 283 -185 250 -173 q 216 -161 196 -137 q 175 -114 167 -80 q 158 -46 161 -3 q 91 13 56 65 q 20 118 20 204 q 20 253 28 305 q 37 356 54 406 q 71 456 97 500 q 124 544 160 577 q 197 610 244 629 q 291 649 349 649 q 449 649 503 594 q 556 539 556 434 q 556 389 549 341 q 542 292 527 246 q 513 200 490 157 q 467 115 436 81 q 405 47 365 24 q 324 1 275 -7 q 274 -27 278 -41 q 281 -56 290 -65 q 299 -74 313 -79 q 328 -83 350 -83 q 371 -83 393 -74 q 416 -65 435 -50 l 486 -132 q 451 -158 411 -171 q 371 -185 330 -185 z m 244 97 q 275 97 301 111 q 326 124 347 147 q 368 171 383 202 q 399 234 409 270 q 420 307 425 346 q 430 385 430 424 q 430 484 407 513 q 384 541 332 541 q 301 541 276 528 q 250 514 229 491 q 208 467 193 436 q 177 404 167 368 q 156 332 151 292 q 146 252 146 214 q 146 153 169 125 q 192 97 244 97 z"},"w":{"x_min":0,"x_max":550,"ha":550,"o":"m 572 496 q 567 429 554 359 q 541 289 518 223 q 495 157 463 99 q 431 42 388 0 l 294 0 l 272 157 l 267 212 l 240 156 l 158 0 l 24 0 l 53 496 l 164 496 l 144 216 l 137 139 l 171 208 l 251 359 l 342 359 l 365 209 l 374 138 q 396 173 412 216 q 427 260 438 307 q 448 354 453 403 q 459 451 461 496 z"},"-":{"x_min":0,"x_max":550,"ha":550,"o":"m 115 213 l 137 319 l 441 319 l 419 213 z"},"E":{"x_min":0,"x_max":550,"ha":550,"o":"m 40 0 l 168 638 l 552 638 l 531 537 l 269 537 l 237 378 l 487 378 l 468 279 l 218 279 l 182 102 l 444 102 l 424 0 z"},"s":{"x_min":0,"x_max":550,"ha":550,"o":"m 38 115 q 88 98 133 89 q 179 80 218 80 q 275 80 301 98 q 327 116 327 144 q 327 154 323 162 q 319 170 309 177 q 299 185 281 192 q 263 199 235 208 q 167 229 132 265 q 98 300 98 355 q 98 386 114 414 q 129 441 159 462 q 189 483 234 495 q 278 507 336 507 q 385 507 419 503 q 454 499 480 493 l 480 396 q 433 410 396 415 q 360 419 331 419 q 301 419 280 414 q 260 409 248 399 q 235 390 230 380 q 225 370 225 361 q 225 350 229 341 q 234 332 245 324 q 256 316 275 309 q 294 301 323 292 q 390 271 423 238 q 456 206 456 157 q 456 114 438 82 q 419 51 387 30 q 354 9 311 -1 q 268 -11 218 -11 q 162 -11 117 -6 q 73 -1 38 8 z"},">":{"x_min":0,"x_max":550,"ha":550,"o":"m 224 543 l 503 261 l 123 -11 l 58 71 l 340 270 l 138 471 z"},"l":{"x_min":0,"x_max":550,"ha":550,"o":"m 228 152 q 221 117 233 99 q 246 82 278 82 q 313 82 354 93 q 395 104 448 124 l 448 31 q 399 10 350 0 q 301 -11 249 -11 q 160 -11 126 33 q 92 77 111 171 l 215 690 l 335 690 z"},"8":{"x_min":0,"x_max":550,"ha":550,"o":"m 395 332 q 413 321 429 307 q 446 293 458 276 q 471 258 478 238 q 486 217 486 192 q 486 154 470 117 q 455 81 422 52 q 390 23 341 6 q 292 -11 226 -11 q 179 -11 142 -2 q 105 8 80 26 q 55 44 42 70 q 29 95 29 127 q 29 163 42 193 q 54 224 76 249 q 98 274 126 294 q 154 314 186 330 q 170 341 155 353 q 141 366 130 382 q 119 397 112 417 q 106 436 106 461 q 106 479 111 501 q 117 522 129 543 q 141 563 160 583 q 179 602 206 617 q 233 631 269 640 q 305 649 350 649 q 394 649 429 640 q 464 630 488 613 q 512 596 524 572 q 537 547 537 516 q 537 484 526 457 q 514 430 495 407 q 476 385 450 366 q 424 347 395 332 z m 303 384 q 330 397 352 411 q 374 424 389 439 q 404 454 412 470 q 420 486 420 506 q 420 517 416 526 q 411 535 401 542 q 391 549 375 553 q 359 557 336 557 q 306 557 284 550 q 263 542 250 531 q 237 519 231 503 q 225 488 225 473 q 225 448 243 427 q 262 405 303 384 z m 278 276 q 214 244 182 213 q 149 182 149 144 q 149 131 155 120 q 160 109 171 101 q 183 92 200 88 q 218 83 241 83 q 271 83 293 90 q 316 97 331 110 q 347 122 355 139 q 363 157 363 177 q 363 192 358 205 q 353 218 342 230 q 331 242 315 253 q 299 264 278 276 z"},"\\":{"x_min":0,"x_max":550,"ha":550,"o":"m 260 690 l 441 -105 l 329 -105 l 148 690 z"},"e":{"x_min":0,"x_max":550,"ha":550,"o":"m 162 207 q 161 201 161 194 q 160 186 160 177 q 160 132 188 108 q 216 84 271 84 q 308 84 350 90 q 392 95 430 106 l 430 13 q 389 2 342 -4 q 295 -11 248 -11 q 200 -11 162 0 q 124 12 98 35 q 71 58 57 93 q 43 127 43 174 q 43 241 64 302 q 84 362 122 408 q 160 454 213 480 q 267 507 332 507 q 375 507 407 497 q 440 487 463 470 q 486 452 498 427 q 510 403 510 373 q 510 335 495 305 q 479 274 446 253 q 412 231 358 219 q 304 207 227 207 z m 233 292 q 284 292 315 298 q 347 304 364 313 q 381 323 387 335 q 393 348 393 362 q 393 388 373 403 q 353 418 320 418 q 293 418 271 408 q 248 398 231 381 q 213 364 201 341 q 188 318 181 292 z"},"b":{"x_min":0,"x_max":550,"ha":550,"o":"m 517 335 q 517 260 497 197 q 477 134 439 88 q 401 42 346 17 q 291 -9 220 -9 q 188 -9 162 -7 q 135 -4 111 0 q 86 3 65 9 q 43 14 22 21 l 156 690 l 275 690 l 241 520 l 206 417 q 219 438 237 455 q 255 471 277 483 q 298 495 322 501 q 346 507 370 507 q 442 507 480 462 q 517 417 517 335 z m 393 327 q 393 366 380 387 q 366 407 339 407 q 324 407 307 399 q 291 391 275 376 q 258 362 243 343 q 228 323 215 302 q 202 280 192 257 q 183 234 179 212 l 156 95 q 171 90 188 87 q 205 84 223 84 q 258 84 284 96 q 310 109 329 129 q 348 149 360 175 q 373 201 380 228 q 387 255 390 281 q 393 307 393 327 z"},"%":{"x_min":0,"x_max":550,"ha":550,"o":"m 49 0 l -52 0 l 539 690 l 641 690 z m 344 589 q 344 575 341 556 q 338 536 331 515 q 324 495 312 474 q 300 454 282 437 q 265 421 240 411 q 215 401 183 401 q 131 401 101 429 q 72 458 72 511 q 72 525 75 544 q 78 564 85 585 q 92 605 104 626 q 116 646 134 663 q 151 679 176 689 q 200 699 233 699 q 285 699 314 671 q 344 643 344 589 z m 257 583 q 257 625 223 625 q 209 625 199 618 q 189 612 182 602 q 175 591 170 579 q 166 566 164 554 q 161 542 160 532 q 159 522 159 517 q 159 475 193 475 q 207 475 217 482 q 227 488 234 499 q 241 509 246 521 q 250 534 252 546 q 255 558 256 568 q 257 578 257 583 z m 516 179 q 516 165 513 146 q 510 126 503 105 q 496 84 484 64 q 472 43 454 27 q 437 11 412 1 q 387 -9 355 -9 q 303 -9 274 19 q 244 47 244 101 q 244 115 247 135 q 250 154 257 175 q 264 196 276 216 q 288 237 305 253 q 323 269 348 279 q 372 289 405 289 q 457 289 487 261 q 516 232 516 179 z m 429 173 q 429 215 395 215 q 381 215 371 208 q 361 202 354 191 q 347 181 342 168 q 338 156 335 144 q 333 132 332 122 q 331 112 331 107 q 331 65 365 65 q 379 65 389 72 q 399 78 406 88 q 413 99 418 111 q 422 124 425 136 q 427 148 428 158 q 429 168 429 173 z"},"m":{"x_min":0,"x_max":550,"ha":550,"o":"m 368 0 l 436 338 q 443 375 443 394 q 442 412 429 412 q 418 412 403 397 q 388 383 373 360 q 357 337 344 308 q 332 280 326 252 l 276 0 l 174 0 l 242 338 q 249 375 249 394 q 249 412 235 412 q 226 412 210 397 q 195 383 180 360 q 164 337 151 308 q 138 280 132 252 l 82 0 l -21 0 l 32 265 q 35 280 38 298 q 41 316 44 343 q 47 369 51 406 q 55 443 60 496 l 148 496 l 145 416 l 155 430 q 185 470 211 488 q 237 506 268 506 q 304 506 322 489 q 340 472 340 441 q 340 436 339 429 q 338 423 337 416 q 353 438 367 455 q 381 472 396 483 q 411 495 426 500 q 441 506 459 506 q 513 506 535 467 q 557 427 540 346 l 471 0 z"},"#":{"x_min":0,"x_max":550,"ha":550,"o":"m 393 166 l 343 0 l 248 0 l 298 166 l 185 166 l 135 0 l 39 0 l 89 166 l 3 166 l 21 255 l 116 255 l 158 396 l 75 396 l 93 485 l 185 485 l 231 638 l 327 638 l 280 485 l 393 485 l 439 638 l 535 638 l 489 485 l 576 485 l 558 396 l 462 396 l 420 255 l 504 255 l 486 166 z m 367 396 l 254 396 l 211 255 l 324 255 z"},",":{"x_min":0,"x_max":550,"ha":550,"o":"m 27 -94 q 64 -95 94 -87 q 125 -80 146 -67 q 167 -54 178 -37 q 190 -21 190 -4 q 190 9 185 19 q 179 29 173 39 q 167 49 161 62 q 156 74 156 92 q 156 111 162 127 q 168 144 180 156 q 191 168 208 175 q 224 182 244 182 q 266 182 282 175 q 298 167 309 153 q 320 140 326 121 q 331 102 331 80 q 331 22 307 -24 q 283 -70 241 -103 q 200 -136 144 -154 q 89 -172 27 -172 z"},"n":{"x_min":0,"x_max":550,"ha":550,"o":"m 314 0 l 379 323 q 387 364 377 385 q 367 407 342 407 q 327 407 311 399 q 294 391 278 376 q 261 362 246 343 q 230 323 218 302 q 205 280 196 257 q 187 234 182 212 l 140 0 l 21 0 l 74 265 q 77 280 80 298 q 83 316 86 343 q 89 369 93 406 q 97 443 102 496 l 199 496 l 195 406 q 206 423 223 441 q 241 458 263 473 q 286 488 314 497 q 341 507 373 507 q 413 507 440 494 q 468 481 483 457 q 499 433 503 398 q 507 364 498 321 l 433 0 z"},"h":{"x_min":0,"x_max":550,"ha":550,"o":"m 314 0 l 379 323 q 387 364 377 385 q 367 407 342 407 q 326 407 309 399 q 292 391 275 376 q 259 362 243 343 q 228 323 215 302 q 202 280 193 257 q 183 234 179 212 l 137 0 l 18 0 l 156 690 l 275 690 l 241 520 l 206 417 q 219 438 238 455 q 256 471 277 483 q 299 495 323 501 q 348 507 373 507 q 413 507 440 494 q 468 481 483 457 q 499 433 503 398 q 507 364 498 321 l 433 0 z"},"z":{"x_min":0,"x_max":550,"ha":550,"o":"m 23 0 l 40 84 l 340 394 l 108 394 l 128 496 l 522 496 l 505 411 l 212 105 l 448 105 l 427 0 z"},"B":{"x_min":0,"x_max":550,"ha":550,"o":"m 13 0 l 141 638 l 341 638 q 395 638 432 628 q 469 619 492 602 q 516 585 526 562 q 536 539 536 512 q 536 481 527 453 q 517 424 500 401 q 483 377 460 360 q 438 343 410 334 q 432 330 449 320 q 467 310 479 294 q 491 279 497 261 q 503 242 503 222 q 503 204 499 180 q 495 156 484 132 q 472 107 452 83 q 432 60 400 41 q 367 22 321 11 q 274 0 211 0 z m 407 484 q 407 495 404 505 q 400 516 390 524 q 380 533 363 538 q 345 543 316 543 l 240 543 l 207 374 l 274 374 q 307 374 332 384 q 357 393 374 409 q 391 424 399 444 q 407 464 407 484 z m 229 98 q 269 98 296 108 q 323 119 340 135 q 357 151 365 172 q 373 193 373 214 q 373 228 368 240 q 363 252 351 261 q 339 271 319 277 q 298 282 266 282 l 188 282 l 151 98 z"},"K":{"x_min":0,"x_max":550,"ha":550,"o":"m 327 0 l 197 309 l 135 0 l 12 0 l 140 638 l 263 638 l 206 353 l 451 638 l 604 638 l 320 329 l 478 0 z"},"R":{"x_min":0,"x_max":550,"ha":550,"o":"m 338 0 l 299 159 q 292 191 282 211 q 273 232 262 244 q 250 255 236 260 q 222 264 204 264 l 186 264 l 133 0 l 13 0 l 141 638 l 324 638 q 370 638 407 631 q 444 623 470 606 q 497 590 511 563 q 525 537 525 499 q 525 460 513 427 q 501 393 479 366 q 457 340 425 322 q 393 304 352 297 q 364 290 375 280 q 385 269 394 253 q 403 236 411 213 q 420 190 429 158 l 473 0 z m 247 358 q 282 358 310 365 q 338 373 357 388 q 377 402 387 424 q 398 445 398 473 q 398 507 374 522 q 351 538 299 538 l 241 538 l 205 358 z"},"T":{"x_min":0,"x_max":550,"ha":550,"o":"m 394 538 l 287 0 l 164 0 l 271 538 l 96 538 l 117 638 l 590 638 l 569 538 z"},"P":{"x_min":0,"x_max":550,"ha":550,"o":"m 549 476 q 549 423 530 374 q 512 325 474 288 q 437 250 379 228 q 322 205 244 205 l 177 205 l 136 0 l 16 0 l 144 638 l 325 638 q 387 638 430 625 q 473 611 499 589 q 525 566 537 537 q 549 507 549 476 z m 421 458 q 421 473 417 488 q 412 502 400 514 q 388 525 366 532 q 345 539 311 539 l 244 539 l 196 305 l 261 305 q 297 305 327 317 q 357 329 378 349 q 398 370 410 398 q 421 426 421 458 z"},"|":{"x_min":0,"x_max":550,"ha":550,"o":"m 129 -200 l 330 800 l 440 800 l 239 -200 z"},"t":{"x_min":0,"x_max":550,"ha":550,"o":"m 438 7 q 404 -1 371 -6 q 337 -11 308 -11 q 259 -11 224 0 q 189 10 169 34 q 148 57 143 95 q 138 132 149 186 l 193 403 l 60 403 l 78 496 l 211 496 l 237 623 l 365 655 l 333 496 l 526 496 l 508 403 l 315 403 l 271 185 q 266 160 266 141 q 267 123 274 111 q 281 99 295 93 q 309 86 332 86 q 359 86 386 91 q 413 96 438 102 z"},"M":{"x_min":0,"x_max":550,"ha":550,"o":"m 372 0 l 432 361 l 457 505 l 406 407 l 292 190 l 217 190 l 196 407 l 189 505 l 158 364 l 74 0 l -28 0 l 131 638 l 261 638 l 280 457 l 287 355 l 333 451 l 430 638 l 574 638 l 478 0 z"},"g":{"x_min":0,"x_max":550,"ha":550,"o":"m 429 -4 q 419 -53 401 -91 q 382 -128 353 -154 q 323 -179 281 -192 q 239 -205 183 -205 q 142 -205 96 -196 q 51 -187 14 -168 l 61 -81 q 91 -97 121 -104 q 150 -112 185 -112 q 239 -112 269 -86 q 299 -61 311 -10 q 316 12 324 34 q 333 56 341 79 q 328 58 310 41 q 292 24 270 13 q 249 1 225 -5 q 201 -11 177 -11 q 104 -11 67 34 q 30 79 30 161 q 30 236 50 299 q 70 362 108 408 q 146 454 201 479 q 257 505 327 505 q 365 505 394 500 q 424 495 446 488 l 531 506 z m 391 401 q 375 406 359 409 q 343 412 324 412 q 290 412 263 400 q 237 387 218 367 q 199 347 187 321 q 174 295 167 268 q 160 241 157 215 q 154 189 154 169 q 154 130 167 109 q 181 89 208 89 q 230 89 256 107 q 281 125 304 153 q 327 182 344 216 q 362 251 368 284 z"},"j":{"x_min":0,"x_max":550,"ha":550,"o":"m 117 467 q 165 486 212 497 q 259 507 311 507 q 399 507 432 464 q 465 420 446 326 l 384 13 q 372 -47 347 -88 q 323 -130 288 -156 q 254 -182 210 -194 q 167 -205 117 -205 q 11 -205 -50 -144 l 23 -62 q 32 -72 42 -80 q 53 -89 66 -95 q 80 -102 95 -106 q 111 -110 130 -110 q 185 -110 217 -79 q 250 -47 262 13 l 328 343 q 335 378 325 396 q 314 414 282 414 q 265 414 246 411 q 228 409 208 404 q 188 398 165 391 q 143 383 117 374 z m 509 636 q 509 619 502 604 q 495 588 484 577 q 473 566 458 560 q 442 554 426 554 q 409 554 395 560 q 380 566 370 576 q 360 586 355 600 q 349 613 349 628 q 349 646 356 660 q 363 675 375 686 q 386 697 401 704 q 417 710 433 710 q 450 710 464 704 q 478 698 488 688 q 498 677 503 664 q 509 651 509 636 z"},"i":{"x_min":0,"x_max":550,"ha":550,"o":"m 320 166 q 311 120 320 101 q 330 82 357 82 q 380 82 408 92 q 436 102 471 119 l 471 28 q 439 11 403 0 q 367 -11 329 -11 q 246 -11 213 32 q 180 75 199 170 l 231 330 q 240 376 230 395 q 221 414 194 414 q 171 414 143 404 q 115 394 80 377 l 80 468 q 112 486 148 497 q 184 507 222 507 q 305 507 338 464 q 371 420 352 326 z m 418 636 q 418 619 411 604 q 404 588 393 577 q 381 566 366 560 q 352 554 335 554 q 318 554 304 560 q 290 566 279 576 q 269 586 263 600 q 258 613 258 628 q 258 646 265 660 q 271 675 283 686 q 295 697 310 704 q 325 710 342 710 q 359 710 373 704 q 387 698 397 688 q 407 677 413 664 q 418 651 418 636 z"},"y":{"x_min":0,"x_max":550,"ha":550,"o":"m 539 496 q 535 464 529 434 q 523 404 514 373 q 505 342 491 310 q 478 278 459 242 q 440 206 415 166 q 390 125 357 78 q 315 18 279 -26 q 244 -71 212 -102 q 181 -133 154 -154 q 126 -174 101 -185 q 75 -196 50 -201 q 25 -205 0 -205 q -18 -205 -32 -204 q -45 -203 -56 -201 l -56 -100 q -42 -103 -27 -104 q -11 -105 4 -105 q 24 -105 42 -100 q 59 -95 77 -83 q 95 -71 114 -51 q 134 -30 158 0 l 60 496 l 184 496 l 254 113 q 283 156 306 193 q 329 229 345 261 q 362 293 374 323 q 385 352 393 380 q 400 408 405 436 q 410 465 412 496 z"},"@":{"x_min":0,"x_max":550,"ha":550,"o":"m 576 469 q 576 443 573 410 q 570 377 564 341 q 558 305 549 267 q 540 229 527 194 q 514 159 498 128 q 482 97 462 73 q 442 50 418 36 q 395 23 367 23 q 348 23 335 28 q 321 33 313 42 q 304 50 300 62 q 295 74 294 87 q 286 71 275 59 q 264 47 251 39 q 239 31 226 27 q 213 23 201 23 q 164 23 144 47 q 124 70 124 126 q 124 139 126 160 q 128 182 133 208 q 138 234 145 263 q 153 292 164 320 q 175 349 190 375 q 206 400 225 420 q 245 439 270 451 q 294 463 324 463 q 341 463 356 459 q 371 456 380 451 l 457 467 l 384 200 q 376 171 372 154 q 369 136 368 127 q 368 117 371 114 q 373 111 377 111 q 389 111 401 129 q 414 147 425 177 q 437 207 448 244 q 458 282 466 321 q 474 360 478 397 q 483 435 483 463 q 483 538 458 577 q 432 616 377 616 q 346 616 316 601 q 286 585 259 558 q 232 531 208 494 q 183 458 162 415 q 142 372 125 325 q 109 278 97 231 q 85 184 79 138 q 73 92 73 52 q 73 -33 102 -76 q 131 -120 194 -120 q 236 -120 277 -109 q 318 -98 360 -76 l 360 -164 q 319 -184 273 -194 q 227 -205 186 -205 q 137 -205 98 -190 q 60 -176 34 -146 q 7 -116 -6 -70 q -20 -25 -20 36 q -20 87 -13 142 q -5 198 9 254 q 23 310 44 365 q 64 420 91 470 q 118 520 150 562 q 182 604 220 635 q 257 666 300 684 q 342 701 388 701 q 434 701 469 685 q 504 668 528 637 q 552 607 564 564 q 576 521 576 469 z m 332 368 q 331 371 324 372 q 318 374 312 374 q 298 374 285 359 q 273 344 263 320 q 253 296 245 268 q 237 239 232 212 q 227 186 224 164 q 221 142 221 132 q 221 120 224 116 q 226 113 230 113 q 235 113 243 119 q 250 125 260 144 q 271 163 283 197 q 295 231 310 287 z"},".":{"x_min":0,"x_max":550,"ha":550,"o":"m 243 180 q 263 180 280 173 q 297 165 309 153 q 321 140 328 124 q 335 107 335 89 q 335 67 327 49 q 319 31 305 18 q 292 4 273 -4 q 255 -11 235 -11 q 215 -11 199 -4 q 183 4 171 16 q 159 29 152 45 q 145 62 145 79 q 145 101 153 119 q 161 138 175 151 q 188 165 206 173 q 224 180 243 180 z"},"p":{"x_min":0,"x_max":550,"ha":550,"o":"m 223 -9 q 197 -9 176 -6 q 155 -4 140 -1 l 138 -10 l 101 -194 l -18 -194 l 74 265 q 77 280 80 298 q 83 316 86 343 q 89 369 93 406 q 97 443 102 496 l 199 496 l 195 406 q 206 423 223 441 q 241 458 263 473 q 286 488 314 497 q 341 507 373 507 q 446 507 483 462 q 520 417 520 335 q 520 260 500 197 q 480 134 442 88 q 404 42 349 17 q 293 -9 223 -9 z m 396 327 q 396 366 383 387 q 369 407 342 407 q 327 407 311 399 q 294 391 278 376 q 261 362 246 343 q 230 323 218 302 q 205 280 196 257 q 187 234 182 212 l 159 95 q 169 91 187 88 q 205 84 226 84 q 261 84 287 96 q 313 109 332 129 q 351 149 363 175 q 375 201 383 228 q 390 255 393 281 q 396 307 396 327 z"},"X":{"x_min":0,"x_max":550,"ha":550,"o":"m 349 0 l 273 235 l 105 0 l -46 0 l 203 327 l 94 638 l 229 638 l 300 416 l 457 638 l 604 638 l 370 327 l 496 0 z"},"*":{"x_min":0,"x_max":550,"ha":550,"o":"m 371 268 l 269 268 l 284 419 l 160 331 l 112 416 l 252 479 l 111 542 l 161 627 l 284 539 l 270 690 l 372 690 l 358 539 l 481 627 l 529 542 l 396 479 l 530 416 l 480 331 l 358 419 z"},"Y":{"x_min":0,"x_max":550,"ha":550,"o":"m 329 226 l 285 0 l 163 0 l 208 225 l 83 638 l 209 638 l 264 441 l 288 344 l 352 444 l 487 638 l 622 638 z"},"c":{"x_min":0,"x_max":550,"ha":550,"o":"m 433 22 q 414 15 393 9 q 373 3 352 -1 q 332 -5 312 -7 q 293 -9 278 -9 q 170 -9 114 40 q 58 88 58 182 q 58 221 67 260 q 75 299 92 335 q 109 371 135 402 q 161 433 195 455 q 229 478 273 491 q 316 504 368 504 q 414 504 450 498 q 487 491 513 483 l 491 371 q 464 385 430 393 q 396 402 364 402 q 330 402 303 392 q 277 382 258 365 q 238 349 224 327 q 211 306 203 283 q 194 260 191 237 q 187 214 187 196 q 187 146 216 121 q 246 95 299 95 q 333 95 367 103 q 401 111 433 124 z"},"!":{"x_min":0,"x_max":550,"ha":550,"o":"m 315 198 l 213 198 l 294 690 l 432 690 z m 319 71 q 319 53 312 38 q 304 23 292 12 q 280 1 265 -5 q 250 -11 233 -11 q 216 -11 203 -5 q 189 0 180 11 q 170 21 165 34 q 159 48 159 63 q 159 81 166 96 q 173 111 185 122 q 197 133 212 139 q 228 145 244 145 q 261 145 274 139 q 288 133 298 123 q 308 113 313 99 q 319 86 319 71 z"},"/":{"x_min":0,"x_max":550,"ha":550,"o":"m 82 -105 l -40 -105 l 461 690 l 583 690 z"},"[":{"x_min":0,"x_max":550,"ha":550,"o":"m 60 -194 l 241 712 l 498 712 l 480 619 l 333 619 l 188 -101 l 335 -101 l 317 -194 z"},"6":{"x_min":0,"x_max":550,"ha":550,"o":"m 505 243 q 505 192 487 146 q 469 100 434 65 q 399 30 349 9 q 298 -11 233 -11 q 141 -11 92 39 q 44 89 44 187 q 44 208 47 237 q 50 265 56 296 q 62 327 72 361 q 82 394 96 427 q 111 459 130 489 q 148 519 173 543 q 195 565 223 583 q 251 600 287 613 q 323 625 367 632 q 410 638 462 638 l 537 638 l 516 537 l 431 537 q 377 537 339 525 q 300 514 274 493 q 248 472 231 444 q 215 416 205 382 l 202 370 q 230 382 260 390 q 290 398 325 398 q 370 398 403 387 q 437 375 459 355 q 482 335 493 306 q 505 278 505 243 z m 252 89 q 284 89 308 102 q 332 114 348 134 q 364 154 372 178 q 380 203 380 226 q 380 243 375 256 q 371 270 360 279 q 350 289 334 294 q 318 299 296 299 q 280 299 264 296 q 248 293 233 289 q 217 285 203 279 q 189 274 178 268 q 173 243 171 223 q 168 202 168 185 q 168 133 189 111 q 210 89 252 89 z"},"r":{"x_min":0,"x_max":550,"ha":550,"o":"m 398 303 q 405 333 405 353 q 406 373 400 385 q 395 397 384 402 q 373 407 357 407 q 333 407 309 388 q 284 369 262 337 q 240 306 222 265 q 205 224 196 181 l 160 0 l 38 0 l 91 265 q 94 280 97 298 q 100 316 103 343 q 106 369 110 406 q 114 443 119 496 l 216 496 l 211 399 q 222 418 239 438 q 255 457 277 472 q 299 488 327 497 q 354 507 387 507 q 430 507 460 493 q 490 479 506 454 q 523 428 526 390 q 529 352 518 303 z"},"2":{"x_min":0,"x_max":550,"ha":550,"o":"m 13 0 l 31 93 l 212 244 q 266 289 300 322 q 333 355 353 381 q 372 408 379 430 q 386 452 386 475 q 386 504 369 524 q 352 543 316 543 q 278 543 244 527 q 210 510 175 483 l 115 564 q 164 603 219 626 q 273 649 336 649 q 377 649 410 639 q 444 628 468 609 q 492 589 505 560 q 518 531 518 494 q 518 459 508 426 q 499 393 475 357 q 451 322 412 283 q 372 245 313 198 l 203 110 l 468 110 l 446 0 z"},"{":{"x_min":0,"x_max":550,"ha":550,"o":"m 314 -194 q 213 -194 173 -143 q 133 -92 154 14 l 179 138 q 189 188 171 211 q 153 234 101 234 l 70 234 l 89 326 l 120 326 q 173 326 200 352 q 227 377 237 428 l 255 514 q 265 564 284 602 q 303 639 332 663 q 361 688 402 700 q 442 712 495 712 l 536 712 l 518 620 l 487 620 q 463 620 443 614 q 423 607 407 594 q 391 580 379 558 q 367 537 361 506 l 344 421 q 337 384 326 358 q 314 333 299 315 q 283 298 261 289 q 240 280 213 276 q 264 270 281 235 q 299 199 285 127 l 260 3 q 253 -29 257 -49 q 260 -69 271 -81 q 282 -93 300 -97 q 318 -102 342 -102 l 373 -102 l 355 -194 z"},"9":{"x_min":0,"x_max":550,"ha":550,"o":"m 530 451 q 530 408 523 359 q 516 311 501 263 q 486 216 462 173 q 438 129 405 96 q 357 49 280 24 q 203 0 94 0 l 23 0 l 43 102 l 130 102 q 188 102 228 112 q 268 122 296 141 q 323 161 341 189 q 358 218 369 256 l 372 268 q 344 256 313 248 q 283 240 249 240 q 206 240 173 251 q 139 261 116 281 q 93 301 81 329 q 69 358 69 394 q 69 449 88 495 q 108 542 143 576 q 179 610 229 630 q 279 649 341 649 q 382 649 417 638 q 452 627 477 603 q 502 579 516 542 q 530 504 530 451 z m 322 549 q 291 549 267 537 q 244 525 227 506 q 211 486 202 461 q 194 436 194 409 q 194 395 198 382 q 202 370 212 360 q 222 351 238 345 q 254 339 278 339 q 291 339 307 341 q 323 344 339 348 q 354 353 369 358 q 384 364 396 370 q 400 394 403 415 q 406 435 406 453 q 406 500 386 525 q 367 549 322 549 z"}," ":{"x_min":0,"x_max":550,"ha":550,"o":""},"I":{"x_min":0,"x_max":550,"ha":550,"o":"m 131 540 l 151 638 l 555 638 l 535 540 l 394 540 l 306 99 l 446 99 l 427 0 l 23 0 l 42 99 l 184 99 l 272 540 z"},"H":{"x_min":0,"x_max":550,"ha":550,"o":"m 334 0 l 389 278 l 172 278 l 117 0 l -3 0 l 125 638 l 245 638 l 193 382 l 410 382 l 462 638 l 582 638 l 454 0 z"},"4":{"x_min":0,"x_max":550,"ha":550,"o":"m 408 130 l 382 0 l 266 0 l 292 130 l -5 130 l 15 235 l 340 638 l 510 638 l 429 235 l 526 235 l 505 130 z m 373 523 l 137 235 l 316 235 z"},"~":{"x_min":0,"x_max":550,"ha":550,"o":"m 538 346 q 536 308 526 274 q 517 239 497 213 q 478 188 448 172 q 419 157 378 157 q 351 157 329 166 q 307 175 289 188 q 271 202 256 218 q 241 233 227 247 q 213 260 199 269 q 186 278 171 278 q 160 278 151 273 q 142 269 135 259 q 128 249 124 232 q 120 216 119 192 l 19 192 q 21 230 31 264 q 40 299 59 325 q 78 351 107 366 q 137 381 178 381 q 206 381 228 372 q 250 363 267 349 q 285 336 300 320 q 315 305 329 291 q 343 278 356 269 q 370 260 385 260 q 396 260 405 264 q 414 269 421 279 q 428 289 433 306 q 437 322 438 346 z"},"D":{"x_min":0,"x_max":550,"ha":550,"o":"m 548 420 q 548 400 546 371 q 543 342 537 309 q 530 275 518 240 q 506 204 486 169 q 466 135 438 104 q 409 74 369 51 q 330 27 278 14 q 226 0 159 0 l -8 0 l 120 638 l 303 638 q 424 638 486 584 q 548 529 548 420 z m 419 410 q 419 440 412 464 q 404 488 388 504 q 372 521 346 529 q 320 538 283 538 l 219 538 l 132 101 l 182 101 q 233 101 271 117 q 309 133 335 160 q 361 186 377 220 q 394 253 403 288 q 412 322 416 354 q 419 386 419 410 z"},"^":{"x_min":0,"x_max":550,"ha":550,"o":"m 419 326 l 334 552 l 165 326 l 57 326 l 303 638 l 394 638 l 524 326 z"},"0":{"x_min":0,"x_max":550,"ha":550,"o":"m 224 -11 q 181 -11 145 2 q 109 16 84 43 q 58 71 44 113 q 30 154 30 211 q 30 250 36 299 q 43 347 58 395 q 73 444 98 490 q 123 535 159 571 q 195 606 243 627 q 292 649 355 649 q 398 649 434 635 q 470 622 495 594 q 521 567 535 525 q 549 483 549 427 q 549 387 542 339 q 536 292 521 243 q 505 194 481 148 q 457 103 420 67 q 384 32 336 10 q 287 -11 224 -11 z m 337 552 q 299 552 268 529 q 238 506 215 469 q 193 432 178 385 q 164 339 157 292 l 426 462 q 420 507 397 530 q 375 552 337 552 z m 242 86 q 268 86 290 96 q 312 107 330 125 q 348 144 363 169 q 378 194 389 223 q 401 251 409 283 q 417 314 422 346 l 153 176 q 159 130 182 108 q 204 86 242 86 z"},"F":{"x_min":0,"x_max":550,"ha":550,"o":"m 269 536 l 234 360 l 475 360 l 455 261 l 214 261 l 162 0 l 40 0 l 168 638 l 545 638 l 524 536 z"},"`":{"x_min":0,"x_max":550,"ha":550,"o":"m 273 690 l 396 562 l 277 562 l 112 690 z m 0 496 z"},"k":{"x_min":0,"x_max":550,"ha":550,"o":"m 339 0 l 198 250 q 255 257 294 268 q 333 279 356 292 q 380 306 391 323 q 401 340 401 361 q 401 390 385 401 q 370 413 343 413 q 319 413 293 396 q 268 379 245 353 q 222 326 206 294 q 189 262 183 232 l 137 0 l 18 0 l 156 690 l 275 690 l 241 520 l 206 417 q 219 438 237 455 q 255 471 276 483 q 297 495 322 501 q 346 507 371 507 q 404 507 431 498 q 459 490 479 473 q 499 457 510 433 q 521 409 521 378 q 521 341 509 312 q 497 282 475 260 q 454 237 423 222 q 393 206 355 197 l 483 0 z"},"u":{"x_min":0,"x_max":550,"ha":550,"o":"m 236 496 l 171 173 q 164 132 173 111 q 183 89 208 89 q 230 89 256 107 q 281 125 304 153 q 327 182 344 216 q 362 251 368 284 l 410 496 l 529 496 l 476 231 q 473 215 470 198 q 467 180 464 154 q 461 127 457 90 q 453 53 448 0 l 351 0 l 355 90 q 344 73 327 55 q 310 37 287 22 q 264 8 237 -2 q 209 -11 177 -11 q 137 -11 110 2 q 82 15 66 39 q 50 63 47 98 q 43 132 52 175 l 117 496 z"},"]":{"x_min":0,"x_max":550,"ha":550,"o":"m 40 -194 l 58 -101 l 204 -101 l 349 619 l 203 619 l 221 712 l 477 712 l 296 -194 z"},"U":{"x_min":0,"x_max":550,"ha":550,"o":"m 502 225 q 490 164 467 119 q 443 75 409 46 q 374 17 328 3 q 282 -11 226 -11 q 174 -11 136 0 q 99 12 74 34 q 50 56 40 87 q 29 118 29 156 q 29 188 38 225 l 120 638 l 240 638 l 157 222 q 151 192 151 169 q 151 149 156 134 q 161 119 171 108 q 182 98 199 93 q 217 88 241 88 q 271 88 294 95 q 317 103 334 120 q 352 137 363 163 q 375 189 382 227 l 465 638 l 586 638 z"},"o":{"x_min":0,"x_max":550,"ha":550,"o":"m 228 -11 q 182 -11 145 0 q 107 12 81 35 q 55 58 41 94 q 27 129 27 177 q 27 219 36 260 q 45 300 62 337 q 80 374 105 405 q 130 436 163 459 q 196 481 236 494 q 275 507 322 507 q 368 507 405 495 q 442 484 469 461 q 495 438 509 402 q 523 367 523 319 q 523 277 514 236 q 505 195 488 159 q 471 122 445 91 q 420 60 387 37 q 354 14 314 1 q 274 -11 228 -11 z m 398 307 q 398 355 374 380 q 351 404 306 404 q 280 404 258 394 q 237 384 219 367 q 202 351 189 329 q 177 307 168 283 q 160 259 156 235 q 152 210 152 189 q 152 141 176 116 q 200 92 244 92 q 271 92 292 102 q 313 112 331 129 q 348 146 360 167 q 373 189 381 213 q 390 237 394 261 q 398 286 398 307 z"},"N":{"x_min":0,"x_max":550,"ha":550,"o":"m 314 0 l 219 381 l 200 463 l 147 198 l 108 0 l -1 0 l 127 638 l 268 638 l 365 255 l 381 180 l 437 462 l 473 638 l 583 638 l 455 0 z"},"+":{"x_min":0,"x_max":550,"ha":550,"o":"m 323 217 l 286 27 l 176 27 l 213 217 l 31 217 l 51 315 l 233 315 l 271 504 l 381 504 l 343 315 l 525 315 l 505 217 z"},"G":{"x_min":0,"x_max":550,"ha":550,"o":"m 282 270 l 302 369 l 529 369 l 460 29 q 413 9 366 -1 q 319 -11 263 -11 q 208 -11 164 4 q 120 20 90 50 q 59 80 43 124 q 27 167 27 224 q 27 262 34 308 q 41 354 58 401 q 75 449 104 493 q 132 538 174 572 q 216 607 274 628 q 332 649 408 649 q 452 649 495 641 q 539 633 577 620 l 554 509 q 522 521 481 531 q 440 542 396 542 q 352 542 316 527 q 281 512 254 487 q 227 462 208 430 q 188 398 176 364 q 164 329 158 293 q 153 258 153 227 q 153 195 160 171 q 168 147 184 130 q 201 113 226 105 q 252 96 288 96 q 311 96 326 99 q 341 102 357 107 l 390 270 z"},"q":{"x_min":0,"x_max":550,"ha":550,"o":"m 272 -194 l 306 -24 l 341 79 q 328 58 310 41 q 292 24 270 13 q 249 1 225 -5 q 201 -11 177 -11 q 104 -11 67 34 q 30 79 30 161 q 30 236 50 299 q 70 362 108 408 q 146 454 201 479 q 257 505 327 505 q 365 505 394 500 q 424 495 446 488 l 531 506 l 391 -194 z m 391 401 q 375 406 359 409 q 343 412 324 412 q 290 412 263 400 q 237 387 218 367 q 199 347 187 321 q 174 295 167 268 q 160 241 157 215 q 154 189 154 169 q 154 130 167 109 q 181 89 208 89 q 230 89 256 107 q 281 125 304 153 q 327 182 344 216 q 362 251 368 284 z"},"d":{"x_min":0,"x_max":550,"ha":550,"o":"m 327 505 q 354 505 374 502 q 394 500 410 497 l 449 690 l 568 690 l 476 231 q 473 215 470 198 q 467 180 464 154 q 461 127 457 90 q 453 53 448 0 l 351 0 l 355 90 q 344 73 327 55 q 310 37 287 22 q 264 8 237 -2 q 209 -11 177 -11 q 104 -11 67 34 q 30 79 30 161 q 30 236 50 299 q 70 362 108 408 q 146 454 201 479 q 257 505 327 505 z m 154 169 q 154 130 167 109 q 181 89 208 89 q 230 89 256 107 q 281 125 304 153 q 327 182 344 216 q 362 251 368 284 l 391 401 q 380 405 363 408 q 345 412 324 412 q 290 412 263 400 q 237 387 218 367 q 199 347 187 321 q 174 295 167 268 q 160 241 157 215 q 154 189 154 169 z"},"1":{"x_min":0,"x_max":550,"ha":550,"o":"m 24 0 l 45 106 l 208 106 l 290 516 l 132 438 l 107 535 l 331 642 l 437 642 l 330 106 l 470 106 l 449 0 z"},"5":{"x_min":0,"x_max":550,"ha":550,"o":"m 484 243 q 484 189 464 143 q 444 97 404 63 q 364 29 303 10 q 243 -10 163 -10 q 148 -10 130 -9 q 112 -8 93 -6 q 74 -5 57 -3 q 40 0 26 2 l 47 106 q 73 99 108 95 q 142 91 180 91 q 226 91 260 102 q 293 113 314 131 q 335 149 346 173 q 356 196 356 221 q 356 238 350 252 q 344 267 329 277 q 314 287 289 293 q 263 299 223 299 l 98 299 l 166 638 l 534 638 l 511 526 l 254 526 l 228 396 l 263 396 q 313 396 354 387 q 395 378 423 360 q 452 341 468 312 q 484 283 484 243 z"}}}
